<svg xmlns="http://www.w3.org/2000/svg" viewBox="0 0 100 100">
  <!-- Back of torso (viewed from behind) -->
  <path d="M22,22 Q22,16 50,14 Q78,16 78,22 L78,78 Q78,86 50,86 Q22,86 22,78Z" fill="#f5c5a3"/>
  <!-- Shoulder blade left -->
  <ellipse cx="36" cy="36" rx="10" ry="13" fill="#e8a882" opacity="0.6"/>
  <!-- Shoulder blade right -->
  <ellipse cx="64" cy="36" rx="10" ry="13" fill="#e8a882" opacity="0.6"/>
  <!-- Spine line -->
  <line x1="50" y1="18" x2="50" y2="80" stroke="#e09070" stroke-width="3" stroke-linecap="round" opacity="0.5"/>
  <!-- Spine vertebra dots -->
  <circle cx="50" cy="26" r="2.5" fill="#e09070" opacity="0.6"/>
  <circle cx="50" cy="36" r="2.5" fill="#e09070" opacity="0.6"/>
  <circle cx="50" cy="46" r="2.5" fill="#e09070" opacity="0.6"/>
  <circle cx="50" cy="56" r="2.5" fill="#e09070" opacity="0.6"/>
  <circle cx="50" cy="66" r="2.5" fill="#e09070" opacity="0.6"/>
  <circle cx="50" cy="76" r="2.5" fill="#e09070" opacity="0.6"/>
  <!-- Waist indent -->
  <path d="M22,62 Q30,60 22,68" stroke="#e8a882" stroke-width="2" fill="none" opacity="0.5"/>
  <path d="M78,62 Q70,60 78,68" stroke="#e8a882" stroke-width="2" fill="none" opacity="0.5"/>
</svg>
